HIERARCHY
ROOT mixamorig:Hips
{
	OFFSET 0.000000 35.069874 -0.029489
	CHANNELS 6 Xposition Yposition Zposition Xrotation Yrotation Zrotation
	JOINT mixamorig:Spine
	{
		OFFSET 0.000000 6.876060 0.125662
		CHANNELS 3 Xrotation Yrotation Zrotation
		JOINT mixamorig:Spine1
		{
			OFFSET 0.000000 8.022060 0.146603
			CHANNELS 3 Xrotation Yrotation Zrotation
			JOINT mixamorig:Spine2
			{
				OFFSET 0.000000 9.168079 0.167547
				CHANNELS 3 Xrotation Yrotation Zrotation
				JOINT mixamorig:Neck
				{
					OFFSET 0.000000 10.314075 0.188489
					CHANNELS 3 Xrotation Yrotation Zrotation
					JOINT mixamorig:Head
					{
						OFFSET 0.000000 7.643753 -2.377445
						CHANNELS 3 Xrotation Yrotation Zrotation
						JOINT mixamorig:HeadTop_End
						{
							OFFSET 0.000000 43.788605 -13.619637
							CHANNELS 3 Xrotation Yrotation Zrotation
							End Site
							{
								OFFSET 0.000000 45.857788 0.000000
							}
						}
					}
				}
				JOINT mixamorig:LeftShoulder
				{
					OFFSET 4.392187 8.825001 0.174995
					CHANNELS 3 Xrotation Yrotation Zrotation
					JOINT mixamorig:LeftArm
					{
						OFFSET 8.774866 -2.970879 -0.026997
						CHANNELS 3 Xrotation Yrotation Zrotation
						JOINT mixamorig:LeftForeArm
						{
							OFFSET 8.450586 -0.797432 -0.648343
							CHANNELS 3 Xrotation Yrotation Zrotation
							JOINT mixamorig:LeftHand
							{
								OFFSET 18.458662 0.962311 0.193148
								CHANNELS 3 Xrotation Yrotation Zrotation
								JOINT mixamorig:LeftHandThumb1
								{
									OFFSET 2.379990 -1.333382 2.680594
									CHANNELS 3 Xrotation Yrotation Zrotation
									JOINT mixamorig:LeftHandThumb2
									{
										OFFSET 1.903984 -1.066746 2.144473
										CHANNELS 3 Xrotation Yrotation Zrotation
										JOINT mixamorig:LeftHandThumb3
										{
											OFFSET 0.966393 -1.489639 2.964555
											CHANNELS 3 Xrotation Yrotation Zrotation
											JOINT mixamorig:LeftHandThumb4
											{
												OFFSET 1.205181 -0.823021 1.625701
												CHANNELS 3 Xrotation Yrotation Zrotation
												End Site
												{
													OFFSET 1.050617 -0.818157 1.731923
												}
											}
										}
									}
								}
								JOINT mixamorig:LeftHandIndex1
								{
									OFFSET 7.830624 -0.787468 2.563931
									CHANNELS 3 Xrotation Yrotation Zrotation
									JOINT mixamorig:LeftHandIndex2
									{
										OFFSET 3.312897 -0.052605 1.515312
										CHANNELS 3 Xrotation Yrotation Zrotation
										JOINT mixamorig:LeftHandIndex3
										{
											OFFSET 3.460667 -0.207008 1.581951
											CHANNELS 3 Xrotation Yrotation Zrotation
											JOINT mixamorig:LeftHandIndex4
											{
												OFFSET 2.183182 0.110458 0.999585
												CHANNELS 3 Xrotation Yrotation Zrotation
												End Site
												{
													OFFSET 2.183868 0.110451 0.998074
												}
											}
										}
									}
								}
								JOINT mixamorig:LeftHandMiddle1
								{
									OFFSET 8.556145 -0.261200 0.258753
									CHANNELS 3 Xrotation Yrotation Zrotation
									JOINT mixamorig:LeftHandMiddle2
									{
										OFFSET 3.828903 -0.489014 -0.111505
										CHANNELS 3 Xrotation Yrotation Zrotation
										JOINT mixamorig:LeftHandMiddle3
										{
											OFFSET 3.696209 -0.166595 -0.107596
											CHANNELS 3 Xrotation Yrotation Zrotation
											JOINT mixamorig:LeftHandMiddle4
											{
												OFFSET 2.259281 0.534500 -0.065675
												CHANNELS 3 Xrotation Yrotation Zrotation
												End Site
												{
													OFFSET 2.259735 0.534134 -0.051267
												}
											}
										}
									}
								}
								JOINT mixamorig:LeftHandRing1
								{
									OFFSET 8.509293 -0.556679 -3.044941
									CHANNELS 3 Xrotation Yrotation Zrotation
									JOINT mixamorig:LeftHandRing2
									{
										OFFSET 2.995171 -0.303261 -0.843591
										CHANNELS 3 Xrotation Yrotation Zrotation
										JOINT mixamorig:LeftHandRing3
										{
											OFFSET 2.968273 -0.101997 -0.834287
											CHANNELS 3 Xrotation Yrotation Zrotation
											JOINT mixamorig:LeftHandRing4
											{
												OFFSET 1.521358 -0.461468 -0.418735
												CHANNELS 3 Xrotation Yrotation Zrotation
												End Site
												{
													OFFSET 1.516514 -0.460747 -0.436712
												}
											}
										}
									}
								}
							}
						}
					}
				}
				JOINT mixamorig:RightShoulder
				{
					OFFSET -4.392150 8.825024 0.141388
					CHANNELS 3 Xrotation Yrotation Zrotation
					JOINT mixamorig:RightArm
					{
						OFFSET -8.774886 -2.970947 -0.094209
						CHANNELS 3 Xrotation Yrotation Zrotation
						JOINT mixamorig:RightForeArm
						{
							OFFSET -8.450586 -0.797386 -0.330665
							CHANNELS 3 Xrotation Yrotation Zrotation
							JOINT mixamorig:RightHand
							{
								OFFSET -18.458664 0.962341 0.025780
								CHANNELS 3 Xrotation Yrotation Zrotation
								JOINT mixamorig:RightHandThumb1
								{
									OFFSET -2.390282 -1.240040 2.604684
									CHANNELS 3 Xrotation Yrotation Zrotation
									JOINT mixamorig:RightHandThumb2
									{
										OFFSET -1.912228 -0.992111 2.083740
										CHANNELS 3 Xrotation Yrotation Zrotation
										JOINT mixamorig:RightHandThumb3
										{
											OFFSET -0.876358 -1.555370 2.930126
											CHANNELS 3 Xrotation Yrotation Zrotation
											JOINT mixamorig:RightHandThumb4
											{
												OFFSET -1.227077 -0.755932 1.835223
												CHANNELS 3 Xrotation Yrotation Zrotation
												End Site
												{
													OFFSET -1.124962 -0.750702 1.901603
												}
											}
										}
									}
								}
								JOINT mixamorig:RightHandIndex1
								{
									OFFSET -8.716801 -0.633743 3.098187
									CHANNELS 3 Xrotation Yrotation Zrotation
									JOINT mixamorig:RightHandIndex2
									{
										OFFSET -3.319706 -0.240585 1.198087
										CHANNELS 3 Xrotation Yrotation Zrotation
										JOINT mixamorig:RightHandIndex3
										{
											OFFSET -3.153255 -0.154724 1.138827
											CHANNELS 3 Xrotation Yrotation Zrotation
											JOINT mixamorig:RightHandIndex4
											{
												OFFSET -1.818684 -0.003197 0.655154
												CHANNELS 3 Xrotation Yrotation Zrotation
												End Site
												{
													OFFSET -1.818668 -0.003197 0.655188
												}
											}
										}
									}
								}
								JOINT mixamorig:RightHandMiddle1
								{
									OFFSET -8.158691 -0.528496 0.196552
									CHANNELS 3 Xrotation Yrotation Zrotation
									JOINT mixamorig:RightHandMiddle2
									{
										OFFSET -3.890194 -0.261169 -0.136423
										CHANNELS 3 Xrotation Yrotation Zrotation
										JOINT mixamorig:RightHandMiddle3
										{
											OFFSET -3.903057 -0.179909 -0.137173
											CHANNELS 3 Xrotation Yrotation Zrotation
											JOINT mixamorig:RightHandMiddle4
											{
												OFFSET -2.366261 0.198380 -0.083987
												CHANNELS 3 Xrotation Yrotation Zrotation
												End Site
												{
													OFFSET -2.366409 0.198326 -0.079799
												}
											}
										}
									}
								}
								JOINT mixamorig:RightHandRing1
								{
									OFFSET -7.616104 -0.395126 -2.681268
									CHANNELS 3 Xrotation Yrotation Zrotation
									JOINT mixamorig:RightHandRing2
									{
										OFFSET -3.235790 -0.462120 -1.101476
										CHANNELS 3 Xrotation Yrotation Zrotation
										JOINT mixamorig:RightHandRing3
										{
											OFFSET -3.179264 -0.138618 -1.084847
											CHANNELS 3 Xrotation Yrotation Zrotation
											JOINT mixamorig:RightHandRing4
											{
												OFFSET -1.963291 -0.101624 -0.668250
												CHANNELS 3 Xrotation Yrotation Zrotation
												End Site
												{
													OFFSET -1.963745 -0.101669 -0.666919
												}
											}
										}
									}
								}
							}
						}
					}
				}
			}
		}
	}
	JOINT mixamorig:LeftUpLeg
	{
		OFFSET 10.205382 -3.823519 0.155145
		CHANNELS 3 Xrotation Yrotation Zrotation
		JOINT mixamorig:LeftLeg
		{
			OFFSET 0.283732 -12.998343 0.567794
			CHANNELS 3 Xrotation Yrotation Zrotation
			JOINT mixamorig:LeftFoot
			{
				OFFSET -1.058953 -10.688869 -2.184322
				CHANNELS 3 Xrotation Yrotation Zrotation
				JOINT mixamorig:LeftToeBase
				{
					OFFSET 0.108145 -7.191069 7.560211
					CHANNELS 3 Xrotation Yrotation Zrotation
					JOINT mixamorig:LeftToe_End
					{
						OFFSET 0.070226 0.081726 4.490266
						CHANNELS 3 Xrotation Yrotation Zrotation
						End Site
						{
							OFFSET 0.070226 0.081726 4.490267
						}
					}
				}
			}
		}
	}
	JOINT mixamorig:RightUpLeg
	{
		OFFSET -10.205383 -3.823513 0.005508
		CHANNELS 3 Xrotation Yrotation Zrotation
		JOINT mixamorig:RightLeg
		{
			OFFSET -0.283728 -12.998341 0.610627
			CHANNELS 3 Xrotation Yrotation Zrotation
			JOINT mixamorig:RightFoot
			{
				OFFSET 1.058956 -10.688892 -1.945833
				CHANNELS 3 Xrotation Yrotation Zrotation
				JOINT mixamorig:RightToeBase
				{
					OFFSET -0.108150 -7.191040 7.372945
					CHANNELS 3 Xrotation Yrotation Zrotation
					JOINT mixamorig:RightToe_End
					{
						OFFSET -0.070229 0.081738 4.479398
						CHANNELS 3 Xrotation Yrotation Zrotation
						End Site
						{
							OFFSET -0.070229 0.081738 4.479399
						}
					}
				}
			}
		}
	}
}
MOTION
Frames: 4
Frame Time: 0.016667
2.089033 32.657898 -4.029102 -0.663850 -46.508653 1.044157 23.762132 -9.602200 2.066231 -2.749014 -0.860321 -4.634847 -2.819527 -1.063364 -4.554114 -2.101152 -1.951472 3.352983 -0.116021 -6.238543 7.499595 0.000001 0.000000 -0.000001 0.820910 -7.845247 1.882284 0.866719 -76.965167 -30.598793 -1.866460 -16.407501 -8.604478 10.695126 -2.195281 -15.852125 28.993463 22.979053 7.485132 -12.343289 38.867355 2.657644 -2.289500 -13.278993 -6.237937 0.000004 -0.000001 -0.000000 15.859629 23.204127 -35.392213 1.682001 0.863117 -3.555963 5.034346 0.490463 -10.887976 0.000000 0.000002 -0.000002 0.589604 1.766102 -26.804338 -0.048863 1.845648 -15.843858 -0.516139 1.690790 -25.263775 0.000000 -0.000000 -0.000003 -7.291463 -9.275078 -31.747915 -4.424697 3.483915 -18.087815 0.626272 2.696717 0.684861 0.000004 0.000002 -0.000002 4.171893 25.423141 1.156634 35.333470 29.553641 34.229203 -19.076628 73.686294 22.671630 6.221952 2.430415 1.387152 7.998909 -15.553978 -4.526074 11.495850 -48.840483 -2.863368 1.603840 14.152299 7.697691 -0.000000 0.000003 -0.000001 12.889588 -19.210954 32.138779 8.049059 -1.245993 21.073531 7.280522 -1.043409 19.432196 0.000001 0.000002 0.000001 0.024733 -0.569533 25.458642 0.094699 -3.521167 23.898036 -0.277830 -3.128637 26.958448 -0.000001 -0.000001 0.000001 -7.955145 13.849387 23.455276 -7.678748 -6.368513 27.388640 -5.578811 -4.839042 18.884194 -0.000002 0.000001 -0.000001 -10.115856 -10.740763 8.293899 57.743867 -10.789156 -8.864552 -2.414355 30.030327 -3.167139 -27.209196 5.391636 -17.743042 0.000002 -0.000001 0.000000 -35.135866 12.826108 0.024772 44.481218 10.292184 -5.555625 -7.624223 -5.982310 2.884093 -5.307481 -0.000002 0.000014 -0.000000 0.000002 0.000000 
1.603723 32.692371 -3.935606 -2.517016 -50.040128 -1.825387 23.554182 -7.851744 1.189301 -2.443509 -0.637599 -4.395342 -2.494739 -0.828905 -4.336283 -2.023411 -1.833199 3.252241 0.625998 -5.733629 7.600366 0.000001 0.000001 0.000000 0.799603 -7.277549 0.814485 2.496048 -73.505574 -33.336063 -1.840383 -16.153104 -8.596929 7.299639 0.283724 -14.267697 28.993484 22.979063 7.485128 -12.343290 38.867352 2.657642 -2.289499 -13.278988 -6.237932 0.000002 0.000000 0.000001 16.381794 23.064048 -36.620725 2.300470 1.032148 -4.860245 5.650914 0.582972 -12.196369 0.000000 0.000003 -0.000002 0.678447 1.960660 -28.119450 -0.009381 2.093284 -17.361267 -0.501010 1.951219 -26.768842 -0.000001 -0.000004 -0.000000 -7.492865 -8.791080 -33.408077 -4.752957 3.918611 -19.707468 0.262808 2.984579 -0.934553 0.000001 0.000000 -0.000001 4.164290 24.714637 1.558763 29.964361 30.911394 38.843286 -29.106148 78.900078 32.431517 4.448980 2.568487 0.201545 7.998920 -15.553990 -4.526070 11.495850 -48.840480 -2.863371 1.603839 14.152298 7.697694 0.000000 0.000004 0.000003 12.400398 -19.303049 30.785360 7.754489 -1.247832 20.316422 7.135575 -1.039733 19.053327 -0.000001 0.000001 -0.000000 -0.017399 -0.420834 24.465811 0.067800 -3.406643 23.144878 -0.288847 -3.061286 26.534505 -0.000001 -0.000001 -0.000001 -7.758320 14.119465 22.508392 -7.552943 -6.171093 26.797455 -5.495504 -4.742073 18.558802 -0.000002 0.000001 0.000001 -14.671760 -8.549587 9.041484 64.102575 -11.389665 -7.739612 3.657675 26.846600 -1.391334 -28.473010 10.479289 -21.980995 -0.000001 0.000001 -0.000000 -33.535843 10.354322 1.414164 41.202665 10.982781 -4.247427 -5.111635 -2.420237 1.612481 -5.258847 -0.000027 0.000014 -0.000000 0.000002 -0.000000 
1.099667 32.730343 -3.814504 -4.769974 -53.561438 -5.174103 23.106206 -6.008201 0.682791 -2.045336 -0.404225 -4.336017 -2.081507 -0.587494 -4.298053 -1.893120 -1.771141 3.327822 1.332830 -5.273624 7.677530 0.000000 0.000001 0.000000 0.779155 -6.731387 -0.143664 4.940782 -69.747419 -35.137690 -1.846202 -16.209986 -8.598577 4.412306 2.920612 -10.932377 28.993484 22.979058 7.485133 -12.343286 38.867349 2.657646 -2.289499 -13.278993 -6.237935 0.000001 0.000001 -0.000000 16.620514 22.996228 -37.184564 2.783953 1.153804 -5.875664 6.131736 0.645162 -13.214391 -0.000000 0.000002 -0.000001 0.735164 2.079011 -28.926654 0.027133 2.291469 -18.580947 -0.483635 2.163390 -27.997371 -0.000000 -0.000001 0.000001 -7.627176 -8.443711 -34.585588 -5.024671 4.298576 -21.094923 -0.046219 3.242858 -2.340006 0.000003 0.000004 -0.000002 4.170338 23.843472 2.135077 24.078906 31.895320 43.401966 -53.121943 83.211075 56.184416 2.073285 1.795125 0.162592 7.998912 -15.553982 -4.526055 11.495850 -48.840487 -2.863368 1.603835 14.152299 7.697692 -0.000003 0.000003 -0.000000 11.967574 -19.375071 29.592280 7.423464 -1.245251 19.465650 6.972701 -1.034449 18.627606 0.000000 0.000001 0.000001 -0.055020 -0.278992 23.523479 0.039497 -3.278156 22.302552 -0.300921 -2.983410 26.044577 -0.000002 0.000002 -0.000001 -7.548009 14.397602 21.519061 -7.399171 -5.935587 26.086820 -5.391319 -4.622313 18.154634 -0.000003 -0.000004 0.000001 -19.804174 -7.230862 9.883722 73.040506 -11.150093 -6.349641 4.446018 23.070477 0.673781 -21.779402 9.832977 -23.815890 -0.000001 0.000001 -0.000001 -31.386751 8.291036 2.974045 37.626235 11.083724 -2.984774 -2.585046 1.273802 0.292079 -5.229405 -0.000010 0.000003 -0.000000 0.000000 -0.000000 
0.589370 32.760056 -3.687723 -7.484785 -56.962931 -9.001524 22.508299 -4.120071 0.503202 -1.609577 -0.165245 -4.410571 -1.632516 -0.344289 -4.391416 -1.670275 -1.752158 3.549215 2.016099 -4.845287 7.721369 -0.000000 0.000000 0.000000 0.759159 -6.201418 -0.977778 7.296351 -65.798894 -36.747497 -1.862226 -16.366428 -8.603255 1.928774 5.402143 -6.085123 28.993484 22.979062 7.485123 -12.343289 38.867352 2.657651 -2.289498 -13.278990 -6.237934 -0.000002 0.000001 -0.000001 16.570310 23.010675 -37.065890 3.106892 1.230020 -6.552057 6.452343 0.681826 -13.892205 -0.000001 0.000002 -0.000001 0.754835 2.119100 -29.201360 0.056017 2.433611 -19.458941 -0.467847 2.319809 -28.904787 -0.000001 0.000001 0.000002 -7.700434 -8.244588 -35.255678 -5.231485 4.601291 -22.182986 -0.288324 3.454415 -3.461058 0.000002 0.000004 0.000001 4.203522 22.906598 2.847546 17.795959 32.314308 47.856673 -104.116330 84.402983 106.925239 -0.604882 -0.157719 0.788874 7.998920 -15.553989 -4.526069 11.495849 -48.840483 -2.863370 1.603842 14.152292 7.697693 -0.000002 -0.000002 -0.000002 11.648235 -19.422609 28.714337 7.090577 -1.237702 18.609923 6.808935 -1.027929 18.199410 -0.000000 0.000004 0.000001 -0.084308 -0.161434 22.745503 0.012750 -3.147586 21.449523 -0.312879 -2.901738 25.531804 0.000001 0.000001 0.000000 -7.347903 14.652923 20.597535 -7.227024 -5.679224 25.306170 -5.272215 -4.487469 17.696300 0.000002 -0.000001 0.000001 -25.231200 -6.854150 10.477542 81.007922 -10.855815 -5.457687 4.808705 18.732588 2.769208 -16.354425 6.160657 -20.106412 -0.000001 -0.000002 0.000000 -28.849445 6.778837 4.748065 33.959240 10.980586 -1.973786 -0.189796 4.562323 -0.923201 -5.220405 -0.000023 0.000003 0.000000 0.000005 0.000000 
